<svg width="232" height="73" viewBox="0 0 232 73" fill="none" xmlns="http://www.w3.org/2000/svg">
<path d="M0 0H232V63C232 68.5229 227.523 73 222 73H10C4.47715 73 0 68.5229 0 63V0Z" fill="#A276FF"/>
<path d="M72.9167 31.0105C71.9192 31.7141 70.8147 32.2523 69.6458 32.6042C69.0185 31.8829 68.1847 31.3716 67.2573 31.1396C66.3299 30.9075 65.3536 30.9659 64.4605 31.3068C63.5674 31.6477 62.8005 32.2546 62.2635 33.0456C61.7266 33.8365 61.4455 34.7733 61.4583 35.7292V36.7709C59.6277 36.8184 57.8138 36.4124 56.1781 35.5891C54.5424 34.7658 53.1357 33.5507 52.0833 32.0521C52.0833 32.0521 47.9167 41.4271 57.2917 45.5938C55.1464 47.05 52.5908 47.7802 50 47.6771C59.375 52.8855 70.8333 47.6771 70.8333 35.698C70.8324 35.4078 70.8045 35.1184 70.75 34.8334C71.8131 33.7849 72.5634 32.4612 72.9167 31.0105V31.0105Z" stroke="white" stroke-width="1.04167" stroke-linecap="round" stroke-linejoin="round"/>
<path d="M184.75 29.0833H181.625C180.244 29.0833 178.919 29.632 177.942 30.6088C176.965 31.5856 176.417 32.9103 176.417 34.2916V37.4166H173.292V41.5833H176.417V49.9166H180.583V41.5833H183.708L184.75 37.4166H180.583V34.2916C180.583 34.0154 180.693 33.7504 180.888 33.5551C181.084 33.3597 181.349 33.25 181.625 33.25H184.75V29.0833Z" stroke="white" stroke-width="1.04167" stroke-linecap="round" stroke-linejoin="round"/>
</svg>
